<svg width="157" height="210" viewBox="0 0 157 210" fill="none" xmlns="http://www.w3.org/2000/svg">
<path opacity="0.28" d="M13.3073 176.143L135.394 209.235L144.228 204.13L27.7897 171.653L13.3073 176.143Z" fill="black"/>
<path d="M125.381 11.9104L101.141 12.8879L100.815 7.6019L125.164 6.85966L125.381 11.9104Z" fill="#F5F5F5"/>
<path d="M106.192 14.3722L86.1696 16.6351L85.8076 7.43881L105.413 6.37074C106.115 7.56406 106.565 8.88875 106.735 10.2629C106.925 11.6566 106.737 13.0758 106.192 14.3722Z" fill="#F5F5F5"/>
<path d="M88.2515 11.8741C88.4687 14.3904 87.6179 16.5265 86.4412 16.6171C85.2645 16.7076 83.9973 14.8068 83.7801 12.2543C83.5628 9.70175 84.4137 7.60179 85.5904 7.49317C86.7671 7.38455 88.0343 9.35775 88.2515 11.8741Z" fill="#DBDBDB"/>
<path d="M125.143 12.4163L145.179 10.2817L144.576 1.28274L124.663 4.90312C124.236 6.22034 123.589 7.14447 123.721 8.52266C123.838 9.92442 124.329 11.2691 125.143 12.4163Z" fill="#F5F5F5"/>
<path d="M147.271 5.66792C147.489 8.18424 146.638 10.3204 145.461 10.4109C144.284 10.5014 143.017 8.60065 142.8 6.04813C142.583 3.4956 143.433 1.39564 144.61 1.28702C145.787 1.17841 147.054 3.1516 147.271 5.66792Z" fill="#DBDBDB"/>
<path d="M102.86 11.4393L104.526 15.4582C104.61 15.6676 104.648 15.8928 104.636 16.1182C104.625 16.3436 104.564 16.5638 104.459 16.7636C104.354 16.9633 104.207 17.1378 104.028 17.275C103.849 17.4122 103.642 17.5088 103.422 17.5582C99.5656 18.3909 90.6227 20.346 87.1288 20.9615C85.5539 20.509 84.1418 21.1969 84.2505 22.6451C84.3591 24.0934 86.0608 24.9261 88.215 23.1339C88.9753 22.5003 101.322 20.4909 107.042 19.6038C107.38 19.5505 107.702 19.4198 107.981 19.222C108.261 19.0242 108.491 18.7646 108.654 18.4634C108.817 18.1621 108.908 17.8273 108.921 17.4851C108.933 17.1428 108.866 16.8024 108.726 16.4901L106.246 11.0592L102.86 11.4393Z" fill="#F5F5F5"/>
<path d="M118.501 9.9188C118.61 9.9188 123.806 9.19466 124.53 10.1722C125.254 11.1498 125.543 13.7928 126.087 13.9739C126.63 14.1549 136.767 14.698 137.691 15.3135C138.136 15.1026 138.644 15.0675 139.114 15.2152C139.584 15.3629 139.981 15.6824 140.225 16.11C141.329 17.6669 139.03 18.9884 138.324 18.5902C135.602 17.4753 132.702 16.862 129.761 16.7799C128.041 17.0918 126.296 17.2554 124.548 17.2686C124.15 17.1419 116.492 10.5343 116.492 10.5343L118.501 9.9188Z" fill="#F5F5F5"/>
<path d="M123.573 118.611L131.918 117.688L132.552 124.983L124.695 125.997L123.573 118.611Z" fill="#F5F5F5"/>
<path d="M134 156.356C134 156.356 137.15 156.356 137.911 161.534C138.297 163.539 138.503 165.574 138.526 167.616L142.979 167.942C143.011 164.745 142.708 161.554 142.074 158.42C141.097 155.379 138.164 151.396 135.05 150.382C135.05 150.382 132.299 153.532 134 156.356Z" fill="#F5F5F5"/>
<path d="M127.61 143.377L129.51 157.099L135.394 156.791L135.014 142.436L127.61 143.377Z" fill="#E7E7E7"/>
<path d="M124.912 126.395L127.664 143.647L135.394 143.231C135.394 143.231 135.702 140.045 134.326 139.086L132.805 125.273L124.912 126.395Z" fill="#F5F5F5"/>
<path d="M133.385 124.241L133.548 126.233L123.736 127.572L123.41 125.472L133.385 124.241Z" fill="#E7E7E7"/>
<path d="M130.778 116.91L124.224 117.743L112.119 11.3488L118.111 10.9325L130.778 116.91Z" fill="#F5F5F5"/>
<path d="M156.122 182.153C158.312 195.423 152.646 207.335 141.422 209.199C130.198 211.064 119.88 202.881 116.675 189.576C113.055 174.351 120.604 163.344 131.828 161.48C143.052 159.615 153.932 168.884 156.122 182.153Z" fill="#E7E7E7"/>
<path d="M146.509 184.434C147.957 193.141 144.228 200.944 136.878 202.157C129.529 203.369 122.758 198.029 120.676 189.303C118.268 179.311 123.247 172.106 130.597 170.893C137.946 169.68 145.079 175.744 146.509 184.434Z" fill="#231F20"/>
<path d="M143.975 184.796C145.169 192.038 142.164 198.428 136.027 199.424C129.89 200.419 124.369 196.02 122.631 188.815C120.658 180.56 124.767 174.623 130.832 173.609C136.896 172.595 142.798 177.61 143.975 184.796Z" fill="#414042"/>
<path d="M141.205 185.249C142.092 190.59 139.811 195.369 135.304 196.111C130.796 196.853 126.65 193.577 125.365 188.236C123.899 182.117 126.94 177.7 131.448 176.94C135.955 176.18 140.336 179.927 141.205 185.249Z" fill="#231F20"/>
<path d="M108.801 170.531C109.434 170.206 117.291 167.454 118.649 166.114C117.946 165.524 117.151 165.053 116.295 164.72C113.001 163.272 110.611 162.095 62.2941 150.057C56.4107 148.591 51.1246 148.102 43.105 137.385C35.0853 126.668 31.519 122.902 18.0866 124.803C12.9665 125.495 7.90267 126.553 2.93437 127.971C7.51444 127.826 16.2944 128.478 20.3676 134.887C26.0157 143.775 28.695 154.8 55.0892 160.231C81.4834 165.662 107.823 171.075 108.801 170.531Z" fill="#E49401"/>
<path d="M121.853 116.892L122.595 122.196L133.385 120.856L132.86 115.57L121.853 116.892Z" fill="#E7E7E7"/>
<path d="M126.36 128.894C126.36 128.894 112.132 137.547 102.827 164.846C105.775 166.259 109.029 166.913 112.294 166.747C112.294 166.747 117.237 152.953 128.949 145.204L126.36 128.894Z" fill="#E7E7E7"/>
<path d="M40.1721 159.687H38.8868C36.6872 159.687 34.9041 161.47 34.9041 163.67V169.626C34.9041 171.825 36.6872 173.609 38.8868 173.609H40.1721C42.3716 173.609 44.1548 171.825 44.1548 169.626V163.67C44.1548 161.47 42.3716 159.687 40.1721 159.687Z" fill="#A39E98"/>
<path d="M32.4243 162.783C32.4243 165.597 31.5898 168.348 30.0263 170.688C28.4628 173.028 26.2406 174.852 23.6406 175.929C21.0406 177.006 18.1796 177.288 15.4194 176.739C12.6593 176.19 10.1239 174.835 8.13396 172.845C6.144 170.855 4.7888 168.319 4.23977 165.559C3.69075 162.799 3.97256 159.938 5.04951 157.338C6.12647 154.738 7.95021 152.516 10.2902 150.952C12.6301 149.389 15.3811 148.554 18.1954 148.554C21.9691 148.554 25.5883 150.053 28.2568 152.722C30.9252 155.39 32.4243 159.009 32.4243 162.783Z" fill="#E7E7E7"/>
<path d="M30.0953 163.016C30.0953 165.362 29.3994 167.656 28.0957 169.607C26.7919 171.559 24.9389 173.079 22.7708 173.977C20.6028 174.875 18.2171 175.11 15.9155 174.653C13.6139 174.195 11.4997 173.065 9.84034 171.405C8.18098 169.746 7.05093 167.632 6.59311 165.33C6.13529 163.029 6.37029 160.643 7.26833 158.475C8.16637 156.307 9.68712 154.454 11.6383 153.15C13.5895 151.846 15.8835 151.15 18.2302 151.15C21.377 151.15 24.395 152.401 26.6201 154.626C28.8452 156.851 30.0953 159.869 30.0953 163.016Z" fill="#414042"/>
<path d="M42.0188 155.704L36.968 153.405C36.5173 148.896 34.3786 144.724 30.9809 141.726C27.5832 138.728 23.1777 137.125 18.6478 137.239C13.7506 137.239 9.05388 139.185 5.591 142.647C2.12813 146.11 0.182692 150.807 0.182692 155.704C0.111027 158.06 0.519072 160.405 1.38203 162.597C2.24498 164.79 3.54486 166.784 5.20257 168.459C6.86027 170.134 8.84118 171.454 11.0249 172.339C13.2087 173.224 15.5497 173.656 17.9056 173.608C21.4211 173.613 24.8619 172.594 27.8079 170.675C31.6096 170.404 39.4844 170.205 41.1137 168.177C43.3765 165.389 42.0188 155.704 42.0188 155.704Z" fill="#E7E7E7"/>
<path opacity="0.28" d="M7.11603 163.887C7.11603 164.142 7.01493 164.386 6.83499 164.566C6.65506 164.746 6.41104 164.847 6.15657 164.847C5.90211 164.847 5.65803 164.746 5.47809 164.566C5.29816 164.386 5.19711 164.142 5.19711 163.887C5.19711 163.633 5.29816 163.389 5.47809 163.209C5.65803 163.029 5.90211 162.928 6.15657 162.928C6.41104 162.928 6.65506 163.029 6.83499 163.209C7.01493 163.389 7.11603 163.633 7.11603 163.887Z" fill="black"/>
<path opacity="0.28" d="M8.83592 167.526C9.36582 167.526 9.79538 167.096 9.79538 166.566C9.79538 166.037 9.36582 165.607 8.83592 165.607C8.30603 165.607 7.87646 166.037 7.87646 166.566C7.87646 167.096 8.30603 167.526 8.83592 167.526Z" fill="black"/>
<path opacity="0.28" d="M13.3254 168.721C13.3254 168.91 13.2691 169.096 13.1637 169.254C13.0583 169.411 12.9084 169.534 12.7331 169.607C12.5578 169.68 12.3649 169.699 12.1788 169.662C11.9926 169.625 11.8217 169.533 11.6875 169.399C11.5533 169.265 11.4619 169.094 11.4249 168.908C11.3879 168.722 11.4069 168.529 11.4795 168.353C11.5521 168.178 11.6751 168.028 11.8329 167.923C11.9906 167.817 12.1762 167.761 12.3659 167.761C12.6204 167.761 12.8644 167.862 13.0443 168.042C13.2243 168.222 13.3254 168.466 13.3254 168.721Z" fill="black"/>
<path d="M101.704 169.807V174.93L91.1323 180.614L43.3765 171.255V160.592L101.704 169.807Z" fill="#E7E7E7"/>
<path opacity="0.28" d="M101.071 175.274L97.7396 177.12V168.178H101.071V175.274Z" fill="black"/>
<path opacity="0.28" d="M87.8192 179.963L91.132 180.614L93.413 179.383V168.503L87.8192 167.616V179.963Z" fill="black"/>
<path opacity="0.28" d="M42.0188 155.705L36.9681 153.405C36.7375 150.451 35.7322 147.61 34.0535 145.169C29.1657 148.192 23.5719 153.55 26.9752 157.642C29.8536 161.262 39.3214 158.366 37.4025 168.34C36.95 169.227 35.4836 169.771 33.7819 170.259C37.0224 169.952 40.2266 169.39 41.1861 168.178C43.3766 165.39 42.0188 155.705 42.0188 155.705Z" fill="black"/>
<path d="M109.959 173.482L119.282 169.554V167.309C119.282 167.309 119.608 166.241 116.295 164.793C112.982 163.344 110.611 162.168 62.2938 150.129C56.4103 148.663 51.1243 148.174 43.1047 137.457C35.085 126.74 31.5187 122.975 18.0863 124.875C12.5614 125.612 7.11029 126.823 1.79355 128.496C6.48223 134.724 6.10205 142.58 4.54519 158.601C6.35549 161.896 10.7908 162.656 14.1398 161.697C18.7018 162.584 24.2051 162.53 27.1559 158.62C30.6317 159.923 104.836 175.111 109.959 173.482Z" fill="#FFA500"/>
<path d="M119.282 169.174V167.363C119.282 167.363 108.746 172.287 108.619 172.233C73.8435 166.693 50.563 161.987 14.8638 153.08C14.2483 158.619 4.94339 153.84 4.90719 154.329C4.78047 155.705 4.63562 157.153 4.4908 158.692C6.3011 161.987 10.7364 162.747 14.0854 161.788C18.6474 162.675 24.1507 162.62 27.1015 158.71C30.6315 159.977 104.619 174.858 108.674 174.822L119.282 169.608V169.228V169.174Z" fill="#E49401"/>
<path d="M127.863 138.489L126.36 128.803C126.36 128.803 112.132 137.457 102.827 164.756C104.178 165.378 105.584 165.875 107.026 166.24C111.839 155.565 118.954 146.088 127.863 138.489Z" fill="#F5F5F5"/>
<path d="M106.954 166.241C108.669 166.705 110.455 166.847 112.222 166.657C112.222 166.657 117.164 152.862 128.877 145.114L127.863 138.489C118.928 146.08 111.787 155.558 106.954 166.241Z" fill="#E7E7E7"/>
<path d="M132.805 156.049C132.805 156.049 129.004 162.113 129.655 166.024C131.574 177.175 133.167 183.927 133.167 184.127C131.713 184.681 130.225 185.147 128.714 185.52C128.714 185.52 125.292 171.346 124.659 166.168C124.188 162.349 124.188 152.682 130.09 150.817C130.661 150.898 131.204 151.114 131.674 151.448C132.145 151.781 132.529 152.222 132.794 152.734C133.06 153.245 133.2 153.813 133.202 154.39C133.203 154.967 133.068 155.535 132.805 156.049Z" fill="#F5F5F5"/>
<path d="M132.932 183.203C133.635 183.866 134.056 184.773 134.109 185.738C134.12 186.624 133.789 187.48 133.185 188.127C132.642 188.127 131.755 188.236 130.977 188.272C129.166 188.417 128.171 187.675 128.008 186.209C127.845 184.742 128.424 183.439 129.818 183.33C130.853 183.232 131.892 183.189 132.932 183.203Z" fill="#414042"/>
<path d="M132.099 185.539C132.093 185.967 131.963 186.384 131.726 186.74C131.489 187.097 131.154 187.377 130.761 187.548C130.368 187.719 129.935 187.773 129.512 187.703C129.09 187.634 128.696 187.444 128.379 187.157C128.061 186.87 127.833 186.497 127.722 186.083C127.611 185.67 127.622 185.233 127.753 184.825C127.884 184.418 128.129 184.056 128.46 183.785C128.791 183.513 129.194 183.343 129.619 183.294C130.244 183.269 130.854 183.49 131.318 183.91C131.781 184.33 132.062 184.914 132.099 185.539Z" fill="#A7A9AC"/>
</svg>
