<svg width="23" height="43" viewBox="0 0 23 43" fill="none" xmlns="http://www.w3.org/2000/svg">
<path d="M13.0045 33.6216C11.7144 34.7021 9.00198 33.6216 9.00198 33.6216C9.22388 33.1557 9.36874 32.6568 9.43093 32.1445C9.44033 32.0976 9.44679 32.0502 9.45028 32.0026C9.5001 31.5982 9.51951 31.1907 9.50834 30.7834C9.50834 30.5383 9.50834 30.2932 9.46963 30.0578C9.40993 29.3254 9.28911 28.5994 9.10841 27.8872L12.5723 27.7808C12.3648 28.5209 12.2819 29.2904 12.3272 30.0578C12.3272 30.4125 12.3756 30.7609 12.4175 31.0898C12.4594 31.4188 12.5046 31.6704 12.5594 31.9348L12.5884 32.0703C12.6945 32.5956 12.8335 33.1137 13.0045 33.6216V33.6216Z" fill="#CD8B6D"/>
<path d="M1.4129 38.2498C1.37097 38.0402 2.85135 34.6408 6.4765 33.2507C7.01372 33.0445 7.57012 32.8921 8.13748 32.796C8.91453 32.6702 9.7036 32.6356 10.4887 32.6928C11.9502 32.7752 13.4011 32.9911 14.8234 33.3378C15.5879 33.5292 16.3304 33.7994 17.0391 34.1441C19.1645 35.1891 20.3482 36.821 20.9739 39.1819C22.0737 43.336 2.66428 44.668 1.4129 38.2498Z" fill="#CD8B6D"/>
<path d="M1.41287 38.2498C1.37417 38.0531 2.67071 35.0569 5.81853 33.5378C6.02816 33.4346 6.24748 33.3378 6.46357 33.2507C8.92764 34.7247 14.2557 37.0565 17.0262 34.1506C17.4453 34.356 17.8457 34.5978 18.2227 34.873C19.616 35.8986 20.4804 37.3145 20.9609 39.1884C22.0736 43.336 2.66426 44.668 1.41287 38.2498Z" fill="#55418E"/>
<path d="M18.2393 34.873C15.9558 38.066 9.20866 35.2826 5.81895 33.5378C6.02859 33.4346 6.24791 33.3378 6.464 33.2507C8.92807 34.7247 14.2561 37.0565 17.0266 34.1506C17.4513 34.3552 17.8571 34.597 18.2393 34.873V34.873Z" fill="white"/>
<path d="M19.1035 18.4405C19.2578 18.2346 19.4684 18.0778 19.7099 17.989C19.9339 17.896 20.1676 17.8278 20.4065 17.7858C20.8742 17.6923 21.445 17.6858 21.7772 18.089C21.9898 18.415 22.102 18.7963 22.0997 19.1855C22.1707 20.7756 20.8322 21.6561 19.4583 22.0334C19.197 22.1044 18.7455 22.3559 18.552 22.056C18.2327 21.5142 18.71 19.0114 19.1035 18.4405Z" fill="#CD8B6D"/>
<path d="M19.1004 19.6435C19.1004 19.6435 20.7839 18.0825 21.0097 18.9436C21.1334 19.5433 21.0865 20.1657 20.8742 20.7401C20.8742 20.7401 20.9 19.6209 19.9647 20.0241C19.9647 20.0241 20.2872 21.9044 18.8714 21.0271C18.7297 20.8096 18.6747 20.5469 18.717 20.2908C18.7594 20.0347 18.8962 19.8038 19.1004 19.6435Z" fill="#B66C50"/>
<path d="M2.9903 18.4405C2.83603 18.2346 2.62544 18.0778 2.38396 17.989C2.15988 17.896 1.92626 17.8278 1.68731 17.7858C1.21965 17.6923 0.648786 17.6858 0.316588 18.089C0.103984 18.415 -0.00816558 18.7963 -0.00593356 19.1855C-0.0768884 20.7756 1.2648 21.6561 2.63552 22.0334C2.89677 22.1044 3.3483 22.3559 3.54181 22.056C3.86433 21.5142 3.387 19.0114 2.9903 18.4405Z" fill="#CD8B6D"/>
<path d="M2.99671 19.6435C2.99671 19.6435 1.31315 18.0825 1.08416 18.9436C0.962475 19.5437 1.0105 20.1658 1.22284 20.7401C1.22284 20.7401 1.19381 19.6209 2.12913 20.0241C2.12913 20.0241 1.80661 21.9044 3.22248 21.0271C3.36522 20.8102 3.42124 20.5476 3.37942 20.2913C3.3376 20.035 3.201 19.8038 2.99671 19.6435V19.6435Z" fill="#B66C50"/>
<path d="M19.5805 17.1117C19.5482 17.4181 19.5095 17.7278 19.4676 18.0406C19.2217 20.027 18.8621 21.9976 18.3903 23.9428C17.4615 27.6002 12.9365 29.3966 11.3239 29.274C3.01572 28.1581 2.58355 22.4559 2.6416 21.8335C2.74158 20.8659 2.57064 19.8113 2.50936 18.8437C2.47389 18.3277 2.39971 17.7987 2.32552 17.2698C2.16383 16.3846 2.1334 15.4804 2.23522 14.5864C2.23988 14.5429 2.24742 14.4998 2.2578 14.4574C2.42266 13.5606 2.68212 12.6838 3.03185 11.8417C4.0865 9.26156 6.21837 6.40401 9.26298 6.35886C9.98829 6.35308 10.71 6.46193 11.4013 6.68138C12.4055 7.00048 13.3663 7.44246 14.2621 7.99727C16.1779 9.15512 18.0904 10.4742 19.0483 12.5835C19.7191 14.0575 19.7385 15.5572 19.5805 17.1117Z" fill="#FFC29C"/>
<path d="M4.05124 5.09133C3.58886 5.45404 3.16324 5.8613 2.7805 6.30724C2.44169 6.6974 2.14343 7.121 1.89034 7.57152C1.0744 9.06181 0.695446 10.7521 0.796992 12.4481V12.4481L0.838912 13.1286C0.983893 14.5414 1.30906 15.9298 1.80648 17.2601V17.2601C1.89356 17.4988 1.98709 17.7374 2.08062 17.9761C2.08978 17.9979 2.10171 18.0185 2.11611 18.0374V18.0374C2.14853 18.091 2.19746 18.1328 2.25558 18.1563C2.3137 18.1799 2.37787 18.1839 2.43851 18.168C2.49915 18.152 2.55298 18.1168 2.59196 18.0677C2.63093 18.0186 2.65295 17.9581 2.65471 17.8955C2.8063 16.2441 2.93209 15.0186 4.07059 13.7027C4.93495 12.7158 6.00572 11.8804 6.93459 10.9645C7.75012 10.1846 8.44959 9.29179 9.01163 8.31333L9.14385 8.06821C9.41926 7.54479 9.64079 6.99476 9.80503 6.42657C9.99097 6.1048 10.2069 5.80135 10.4501 5.52029C10.5356 5.52029 10.6176 5.4863 10.6781 5.42582C10.7386 5.36533 10.7726 5.2833 10.7726 5.19776C10.6952 1.30815 5.67352 3.81736 4.05124 5.09133Z" fill="black"/>
<path d="M9.13433 8.0908L9.0021 8.33592C6.87023 8.14563 4.63515 10.7355 3.68694 12.3868C2.63229 14.2252 2.43878 16.0248 2.10658 18.0438C2.09218 18.025 2.08026 18.0044 2.0711 17.9825C1.97757 17.7439 1.88403 17.5052 1.79695 17.2665C1.861 14.9427 2.71408 12.7099 4.21587 10.9354C5.37372 9.58085 7.15727 7.3877 9.13433 8.0908Z" fill="black"/>
<path d="M0.79734 12.4513C1.10451 11.9109 1.45963 11.3993 1.85843 10.9225C3.73228 8.70356 6.77367 5.68798 9.86343 5.6138C9.97309 5.6138 9.96986 5.77506 9.86343 5.78474C7.08652 6.02985 4.15157 8.76483 2.44542 10.8257C1.84762 11.548 1.31346 12.3206 0.848935 13.135L0.79734 12.4513Z" fill="black"/>
<path d="M9.94381 5.42032C8.57309 5.39129 7.04111 4.90428 5.69942 5.36872C4.3602 5.81963 3.119 6.52123 2.04202 7.43608L1.89043 7.57154C2.14353 7.12102 2.44178 6.69742 2.7806 6.30726C2.82898 6.27178 2.87413 6.24275 2.92251 6.21372C3.86427 5.61383 5.05116 4.90106 6.18966 4.78818C7.47975 4.65917 8.69242 4.99459 9.97284 5.19455C10.1018 5.2139 10.0696 5.42032 9.94381 5.42032Z" fill="black"/>
<path d="M21.9706 13.5414C21.948 11.9804 21.2804 10.6548 20.6321 9.18091L20.3387 8.48103C20.2645 8.30365 20.1935 8.12303 20.1258 7.93597C19.7323 6.8781 19.442 5.8041 19.0453 4.78171L18.7228 4.04313C18.4005 3.33435 17.9756 2.67689 17.4618 2.09187C16.2813 0.779208 14.7429 0.514737 13.2335 0.940466C13.1077 0.979169 12.9851 1.01787 12.8594 1.06303C12.5402 1.17687 12.2307 1.316 11.9337 1.47908C11.7228 1.59481 11.5182 1.72185 11.3209 1.85966C11.1951 1.94029 11.0726 2.02414 10.9533 2.11767C10.3663 2.54985 9.81475 3.04331 9.27614 3.5142L9.0536 3.70448C8.51499 4.13666 7.84737 4.49143 7.28295 4.92039L7.14104 5.03005C6.93764 5.1895 6.75169 5.37004 6.58631 5.56866C6.55189 5.51327 6.50361 5.46784 6.44623 5.43687C6.38884 5.4059 6.32436 5.39045 6.25917 5.39208C6.19398 5.39371 6.13035 5.41236 6.07459 5.44616C6.01883 5.47996 5.97286 5.52774 5.94126 5.58478C5.17688 7.14579 6.16381 8.90676 6.97334 10.2743C8.14087 12.261 9.7309 12.9222 11.9531 13.4479C13.2857 13.7405 14.5615 14.2493 15.7298 14.9541C16.2684 15.2766 16.7909 15.6636 17.3166 16.0152C17.6905 16.2643 18.0346 16.5554 18.3422 16.8827C18.5454 17.0795 18.7357 17.6503 18.9873 17.8503C19.8516 18.4954 20.5128 17.9696 20.9772 17.1827C21.0417 17.073 21.103 16.9634 21.1611 16.8602C21.4002 16.3546 21.5945 15.829 21.7416 15.2895C21.8512 14.9082 21.9235 14.5172 21.9577 14.1219C21.9721 13.9288 21.9764 13.735 21.9706 13.5414V13.5414Z" fill="black"/>
<path d="M7.28969 4.91718C9.04744 8.89387 14.0433 10.4387 17.6556 12.7029C19.0714 13.5866 20.455 14.7218 21.0098 16.3538C21.0678 16.5183 21.1194 16.6763 21.1614 16.844C21.1033 16.9601 21.042 17.0698 20.9775 17.1666C20.7665 16.2499 20.3221 15.4033 19.6874 14.7089C18.1619 13.0512 16.0139 12.0836 14.0433 11.0548C11.1987 9.56794 8.3766 7.82955 7.14456 5.01393L7.28969 4.91718Z" fill="black"/>
<path d="M9.06012 3.70126C9.30524 4.08828 9.56647 4.44952 9.82127 4.78816C11.1114 6.53301 13.0304 7.6586 14.8784 8.7326C17.5166 10.2614 20.2516 11.774 21.9578 14.1058C21.9673 13.9178 21.9673 13.7294 21.9578 13.5414C20.6483 11.9288 18.7648 10.6774 16.9845 9.61954C14.9558 8.41008 12.8175 7.36188 11.0662 5.74927C10.3586 5.09624 9.75298 4.34065 9.26976 3.50775L9.06012 3.70126Z" fill="black"/>
<path d="M20.6322 9.18093C20.1325 8.83568 19.5905 8.55602 19.0196 8.34882C17.3134 7.70377 15.3686 7.22966 13.914 6.06858C12.6155 5.01551 11.5982 3.65696 10.9533 2.11447C11.0726 2.02094 11.1952 1.93708 11.321 1.85645C11.6294 2.58303 12.0247 3.26962 12.4982 3.90124C13.8528 5.72349 15.6202 6.61687 17.723 7.35867C18.6232 7.65765 19.4961 8.03315 20.3322 8.48105L20.6322 9.18093Z" fill="black"/>
<path d="M19.0454 4.77848C17.0943 4.53795 15.2628 3.70882 13.7947 2.4015C13.4233 2.00245 13.1135 1.55024 12.8755 1.05981C13.0013 1.01465 13.1239 0.975959 13.2496 0.937256C13.9302 1.93062 14.8977 2.82401 15.475 3.11428C16.504 3.60216 17.6071 3.915 18.739 4.03992L19.0454 4.77848Z" fill="black"/>
<g opacity="0.4">
<path opacity="0.4" d="M17.2197 21.7786C17.2197 22.2624 16.5747 22.6527 15.7716 22.6527C14.9685 22.6527 14.3235 22.2624 14.3235 21.7786C14.3235 21.2948 14.9685 20.9078 15.7716 20.9078C16.5747 20.9078 17.2197 21.2981 17.2197 21.7786Z" fill="#DB5D7B"/>
<path opacity="0.4" d="M7.51502 22.0915C7.51502 22.5753 6.86998 22.9655 6.0669 22.9655C5.26382 22.9655 4.62199 22.5753 4.62199 22.0915C4.62199 21.6077 5.26704 21.2207 6.0669 21.2207C6.86675 21.2207 7.51502 21.6109 7.51502 22.0915Z" fill="#DB5D7B"/>
</g>
<path d="M11.979 20.7659C11.6048 20.7659 11.4113 21.0884 11.1307 21.2013C11.1475 20.7237 11.2145 20.2491 11.3307 19.7855C11.4005 19.2389 11.4124 18.6864 11.3662 18.1374C11.3662 18.1374 11.3662 18.1374 11.3662 18.118C11.3662 17.8793 11.2468 17.6471 10.992 17.9019C10.7373 18.1567 10.7405 18.576 10.7018 18.8921C10.6179 19.5661 10.7018 20.2144 10.5437 20.8659C10.3341 20.6853 10.0987 20.4563 9.84064 20.6079C9.45684 20.8336 9.74389 21.311 9.92773 21.54C10.1535 21.8206 10.6792 22.3785 11.0953 22.2656C11.3684 22.1688 11.611 22.0015 11.7985 21.7806C11.986 21.5596 12.1117 21.293 12.1628 21.0078C12.1701 20.9795 12.1709 20.9499 12.1652 20.9212C12.1594 20.8926 12.1472 20.8656 12.1295 20.8423C12.1118 20.819 12.0891 20.8001 12.063 20.7868C12.0369 20.7736 12.0082 20.7664 11.979 20.7659V20.7659Z" fill="#CD8B6D"/>
<path d="M8.41861 16.3957C7.73808 15.8571 6.90598 15.9474 6.10613 16.0732C5.46108 16.1635 4.60962 16.4344 4.21937 17.0053C3.62271 17.8793 4.39031 18.4889 4.78056 19.2436C4.84506 19.3694 4.98375 19.3178 5.02568 19.2146C5.04539 19.2081 5.06313 19.1967 5.07723 19.1814C5.09134 19.1662 5.10134 19.1477 5.10631 19.1275C5.14786 18.9882 5.17063 18.8439 5.17404 18.6985C5.18242 18.6756 5.18242 18.6505 5.17404 18.6276C5.39012 17.6245 6.33189 17.1085 7.31559 17.0505C8.29928 16.9924 8.41538 17.8987 8.6734 18.6437C8.6734 18.6631 8.68953 18.6824 8.69598 18.705C8.70243 18.7276 8.74758 18.8437 8.77661 18.9082C8.88304 19.1307 8.86369 19.1694 9.24104 18.7792C9.85384 18.118 9.19588 17.015 8.41861 16.3957Z" fill="#390A0A"/>
<path d="M4.86412 18.663C4.86838 19.2074 5.08849 19.7277 5.4761 20.1099C5.86372 20.4921 6.38716 20.7048 6.93149 20.7014C7.20129 20.7035 7.46886 20.6525 7.71893 20.5512C7.96901 20.4499 8.19669 20.3003 8.38896 20.1111C8.58123 19.9218 8.73433 19.6965 8.83953 19.448C8.94473 19.1996 8.99997 18.9328 9.00208 18.663C8.99998 18.3934 8.94471 18.1268 8.83947 17.8785C8.73423 17.6303 8.58108 17.4052 8.38876 17.2162C8.19645 17.0271 7.96874 16.8779 7.71869 16.7769C7.46863 16.676 7.20113 16.6254 6.93149 16.6279C6.66211 16.6258 6.39495 16.6768 6.14527 16.7779C5.89559 16.879 5.66827 17.0283 5.4763 17.2173C5.28433 17.4063 5.13145 17.6312 5.02641 17.8793C4.92138 18.1273 4.86623 18.3937 4.86412 18.663Z" fill="white"/>
<path d="M8.31193 18.7405C8.31193 19.6564 7.73462 20.3982 7.02185 20.3982C6.30907 20.3982 5.73176 19.6564 5.73176 18.7405C5.73176 17.8245 6.30907 17.0827 7.02185 17.0827C7.73462 17.0827 8.31193 17.8245 8.31193 18.7405Z" fill="#5DB35D"/>
<path d="M8.12489 18.7404C8.12489 19.5339 7.62176 20.1757 7.00574 20.1757C6.38972 20.1757 5.88336 19.5306 5.88336 18.7404C5.88336 17.9503 6.3865 17.302 7.00574 17.302C7.62498 17.302 8.12489 17.947 8.12489 18.7404Z" fill="#390A0A"/>
<path d="M7.50595 17.947C7.76779 17.947 7.98005 17.8026 7.98005 17.6245C7.98005 17.4464 7.76779 17.302 7.50595 17.302C7.2441 17.302 7.03184 17.4464 7.03184 17.6245C7.03184 17.8026 7.2441 17.947 7.50595 17.947Z" fill="white"/>
<path d="M12.469 18.7663C12.8463 19.1565 12.827 19.1178 12.9302 18.8953C12.9624 18.8308 12.9882 18.7598 13.014 18.6921C13.0398 18.6244 13.0301 18.6502 13.0366 18.6308C13.2946 17.8858 13.3591 16.9763 14.3944 17.0375C15.4297 17.0988 16.3295 17.6116 16.536 18.6147C16.5222 18.6356 16.5164 18.6608 16.5198 18.6856C16.5232 18.831 16.546 18.9753 16.5876 19.1146C16.5925 19.1347 16.6025 19.1533 16.6166 19.1685C16.6307 19.1838 16.6485 19.1952 16.6682 19.2017C16.7101 19.3049 16.8488 19.3565 16.9133 19.2307C17.3036 18.476 18.0712 17.8664 17.4713 16.9924C17.0842 16.4215 16.2199 16.1506 15.5877 16.0603C14.7847 15.9474 13.9558 15.8571 13.2753 16.3828C12.5044 17.015 11.84 18.118 12.469 18.7663Z" fill="#390A0A"/>
<path d="M12.7919 18.6631C12.7961 19.2074 13.0162 19.7278 13.4038 20.1099C13.7915 20.4921 14.3149 20.7049 14.8592 20.7014C15.4035 20.7049 15.927 20.4921 16.3146 20.1099C16.7022 19.7278 16.9223 19.2074 16.9266 18.6631C16.9245 18.3937 16.8693 18.1274 16.7643 17.8793C16.6592 17.6313 16.5064 17.4063 16.3144 17.2173C16.1224 17.0284 15.8951 16.879 15.6454 16.7779C15.3957 16.6768 15.1286 16.6258 14.8592 16.628C14.5898 16.6258 14.3227 16.6768 14.073 16.7779C13.8233 16.879 13.596 17.0284 13.404 17.2173C13.2121 17.4063 13.0592 17.6313 12.9541 17.8793C12.8491 18.1274 12.794 18.3937 12.7919 18.6631V18.6631Z" fill="white"/>
<path d="M16.1234 18.7405C16.1234 19.6564 15.5429 20.3982 14.8333 20.3982C14.1238 20.3982 13.5432 19.6564 13.5432 18.7405C13.5432 17.8245 14.1206 17.0827 14.8333 17.0827C15.5461 17.0827 16.1234 17.8245 16.1234 18.7405Z" fill="#5DB35D"/>
<path d="M15.9492 18.7404C15.9492 19.5339 15.4493 20.1757 14.8301 20.1757C14.2109 20.1757 13.7109 19.5306 13.7109 18.7404C13.7109 17.9503 14.2109 17.302 14.8301 17.302C15.4493 17.302 15.9492 17.947 15.9492 18.7404Z" fill="#390A0A"/>
<path d="M15.3331 17.947C15.595 17.947 15.8072 17.8026 15.8072 17.6245C15.8072 17.4464 15.595 17.302 15.3331 17.302C15.0713 17.302 14.859 17.4464 14.859 17.6245C14.859 17.8026 15.0713 17.947 15.3331 17.947Z" fill="white"/>
<path d="M14.7819 22.9655C14.5698 23.7317 14.2723 24.4717 13.895 25.1715C13.8665 25.2326 13.8341 25.2919 13.7982 25.3489C12.8306 27.0357 11.0858 28.4322 8.58303 24.8909C8.56873 24.8681 8.55255 24.8465 8.53465 24.8264C8.23148 24.3878 7.91541 23.875 7.58643 23.2816C7.74124 23.3332 11.7889 24.6523 14.7819 22.9655Z" fill="white"/>
<path d="M13.8949 25.1715C13.8664 25.2326 13.8341 25.2919 13.7981 25.3489C13.194 25.4117 12.5863 25.4344 11.9791 25.4167C10.818 25.3844 9.72146 25.0941 8.58296 24.891C8.56867 24.8681 8.55249 24.8466 8.53458 24.8264C9.48796 25.0597 10.4587 25.215 11.4373 25.2909C12.2583 25.3073 13.0794 25.2675 13.8949 25.1715V25.1715Z" fill="#CD8B6D"/>
<path d="M3.1933 17.6181C3.1933 17.6181 2.8095 13.3995 8.95677 15.5539C9.03894 15.208 9.08647 14.8547 9.09868 14.4993C9.0632 14.2671 2.36119 12.5997 3.1933 17.6181Z" fill="#390A0A"/>
<path d="M18.7971 17.6181C18.7971 17.6181 19.1809 13.3995 13.0336 15.5539C12.9517 15.2078 12.9031 14.8547 12.8885 14.4993C12.9272 14.2671 19.6292 12.5997 18.7971 17.6181Z" fill="#390A0A"/>
</svg>
