<svg width="32" height="32" viewBox="0 0 32 32" fill="none" xmlns="http://www.w3.org/2000/svg">
<path fill-rule="evenodd" clip-rule="evenodd" d="M5.0526 10.1053C7.84307 10.1053 10.1052 7.84312 10.1052 5.05263C10.1052 2.26214 7.84307 0 5.0526 0C2.26213 0 0 2.26214 0 5.05263C0 7.84312 2.26213 10.1053 5.0526 10.1053ZM26.9474 10.1053C29.7379 10.1053 32 7.84312 32 5.05263C32 2.26214 29.7379 0 26.9474 0C24.1569 0 21.8948 2.26214 21.8948 5.05263C21.8948 7.84312 24.1569 10.1053 26.9474 10.1053ZM10.1052 26.9474C10.1052 29.7379 7.84307 32 5.0526 32C2.26213 32 0 29.7379 0 26.9474C0 24.1569 2.26213 21.8947 5.0526 21.8947C7.84307 21.8947 10.1052 24.1569 10.1052 26.9474ZM26.9474 32C29.7379 32 32 29.7379 32 26.9474C32 24.1569 29.7379 21.8947 26.9474 21.8947C24.1569 21.8947 21.8948 24.1569 21.8948 26.9474C21.8948 29.7379 24.1569 32 26.9474 32Z" fill="currentColor"/>
</svg>
