<svg width="100" height="66" viewBox="0 0 100 66" fill="none" xmlns="http://www.w3.org/2000/svg">
<ellipse cx="54.2553" cy="33.0001" rx="32.9787" ry="32.9999" fill="white"/>
<path d="M99.0899 53.533C90.344 53.4266 81.9821 51.2033 75.8438 47.3522C69.7054 43.501 66.2933 38.3376 66.3582 32.9977C66.4231 27.6578 69.9596 22.5789 76.1897 18.8783C82.4198 15.1777 90.8333 13.1585 99.5791 13.2649L99.0899 53.533Z" fill="#FFA500"/>
<path d="M50 65.9999C36.7392 65.9999 24.0215 62.5231 14.6447 56.3344C5.26784 50.1457 1.00116e-06 41.7521 0 32.9999C-1.00116e-06 24.2478 5.26784 15.8542 14.6447 9.66546C24.0215 3.47677 36.7392 1.32153e-06 50 0L50 32.9999L50 65.9999Z" fill="#FFA500"/>
</svg>
