<svg width="32" height="32" viewBox="0 0 32 32" fill="none" xmlns="http://www.w3.org/2000/svg">
<path fill-rule="evenodd" clip-rule="evenodd" d="M16 18.6667C15.264 18.6667 14.6667 19.264 14.6667 20C14.6667 20.736 15.264 21.3334 16 21.3334C16.736 21.3334 17.3333 20.736 17.3333 20C17.3333 19.264 16.736 18.6667 16 18.6667M16 24C13.7947 24 12 22.2054 12 20C12 17.7947 13.7947 16 16 16C18.2053 16 20 17.7947 20 20C20 22.2054 18.2053 24 16 24V24ZM13.3333 8.14802C13.3333 6.59602 14.5293 5.33335 16 5.33335C17.4707 5.33335 18.6667 6.59602 18.6667 8.14802V10.6667H13.3333V8.14802ZM22.6667 10.6667H21.3333V8.14802C21.3333 5.12669 18.9413 2.66669 16 2.66669C13.0587 2.66669 10.6667 5.12669 10.6667 8.14802V10.6667H9.33334C7.12801 10.6667 5.33334 12.4614 5.33334 14.6667V25.3334C5.33334 27.5387 7.12801 29.3334 9.33334 29.3334H22.6667C24.872 29.3334 26.6667 27.5387 26.6667 25.3334V14.6667C26.6667 12.4614 24.872 10.6667 22.6667 10.6667V10.6667Z" fill="currentColor"/>
</svg>
